<?xml version="1.0" encoding="iso-8859-1"?>
<!-- Uploaded to: SVG Repo, www.svgrepo.com, Generator: SVG Repo Mixer Tools -->
<svg fill="#000000" height="800px" width="800px" version="1.1" id="Layer_1" xmlns="http://www.w3.org/2000/svg" xmlns:xlink="http://www.w3.org/1999/xlink" 
	 viewBox="0 0 512 512" xml:space="preserve">
<g>
	<g>
		<path d="M490.667,106.667H448V21.333C448,9.557,438.443,0,426.667,0H256c-11.797,0-21.333,9.557-21.333,21.333v85.333h-85.333V64
			H192V0H64v64h42.667v42.667H21.333C9.536,106.667,0,116.224,0,128v277.333c0,11.776,9.536,21.333,21.333,21.333h21.333v64
			C42.667,502.443,52.203,512,64,512h384c11.776,0,21.333-9.557,21.333-21.333v-64h21.333c11.776,0,21.333-9.557,21.333-21.333V128
			C512,116.224,502.443,106.667,490.667,106.667z M320,170.667h42.667v42.667H320V170.667z M320,234.667h42.667v42.667H320V234.667z
			 M320,298.667h42.667v42.667H320V298.667z M256,170.667h42.667v42.667H256V170.667z M256,234.667h42.667v42.667H256V234.667z
			 M256,298.667h42.667v42.667H256V298.667z M85.333,192h128v149.333h-128V192z M426.667,469.333H85.333v-42.667h341.333V469.333z
			 M426.667,341.333H384v-42.667h42.667V341.333z M426.667,277.333H384v-42.667h42.667V277.333z M426.667,213.333H384v-42.667
			h42.667V213.333z"/>
	</g>
</g>
</svg>